<svg xmlns="http://www.w3.org/2000/svg" viewBox="0 0 7177 1215" width="378" height="64" fill="none" role="img" aria-label="bostoncyberx"><title>bostoncyberx</title><g transform="translate(-89.1 -89.1) scale(21.76118)"><path d="M18.5 18.5L45.5 45.5" stroke="#FF3B30" stroke-width="7.0" fill="none"/><path d="M45.5 18.5L18.5 45.5" stroke="#FF3B30" stroke-width="7.0" fill="none"/></g><g transform="translate(1369.9 956.3)"><path d="M66 -740H187V-436H201Q212 -480 245.5 -507Q279 -534 324 -534Q416 -534 460 -464.5Q504 -395 504 -261Q504 -127 460 -57.5Q416 12 324 12Q279 12 245.5 -15Q212 -42 201 -86H187V0H66ZM278 -88Q325 -88 351 -117Q377 -146 377 -199V-323Q377 -376 351 -405Q325 -434 278 -434Q237 -434 212 -413.5Q187 -393 187 -356V-166Q187 -129 212 -108.5Q237 -88 278 -88ZM785 12Q681 12 623.5 -54Q566 -120 566 -261Q566 -402 623.5 -468Q681 -534 785 -534Q889 -534 946.5 -468Q1004 -402 1004 -261Q1004 -120 946.5 -54Q889 12 785 12ZM785 -86Q877 -86 877 -194V-328Q877 -436 785 -436Q693 -436 693 -328V-194Q693 -86 785 -86ZM1250 12Q1185 12 1136 -11.5Q1087 -35 1050 -82L1124 -154Q1149 -119 1180 -101Q1211 -83 1252 -83Q1328 -83 1328 -147Q1328 -172 1315.5 -186.5Q1303 -201 1273 -206L1224 -215Q1142 -230 1105 -266Q1068 -302 1068 -371Q1068 -453 1116 -493.5Q1164 -534 1252 -534Q1313 -534 1357.5 -514Q1402 -494 1435 -455L1364 -384Q1344 -409 1315.5 -424Q1287 -439 1252 -439Q1182 -439 1182 -376Q1182 -350 1196 -336.5Q1210 -323 1240 -318L1290 -309Q1372 -294 1407.5 -258.5Q1443 -223 1443 -159Q1443 -78 1393 -33Q1343 12 1250 12ZM1673 0Q1610 0 1582 -28Q1554 -56 1554 -117V-425H1485V-522H1521Q1547 -522 1556.5 -534Q1566 -546 1566 -572V-664H1675V-522H1769V-425H1675V-97H1761V0ZM2038 12Q1934 12 1876.5 -54Q1819 -120 1819 -261Q1819 -402 1876.5 -468Q1934 -534 2038 -534Q2142 -534 2199.5 -468Q2257 -402 2257 -261Q2257 -120 2199.5 -54Q2142 12 2038 12ZM2038 -86Q2130 -86 2130 -194V-328Q2130 -436 2038 -436Q1946 -436 1946 -328V-194Q1946 -86 2038 -86ZM2345 0V-522H2466V-435H2480Q2511 -534 2605 -534Q2675 -534 2713 -486.5Q2751 -439 2751 -351V0H2630V-330Q2630 -432 2554 -432Q2517 -432 2491.5 -410.5Q2466 -389 2466 -350V0ZM3050 12Q2944 12 2888.5 -54Q2833 -120 2833 -261Q2833 -402 2888.5 -468Q2944 -534 3050 -534Q3127 -534 3172.5 -499Q3218 -464 3238 -403L3139 -359Q3131 -397 3110.5 -416.5Q3090 -436 3050 -436Q2960 -436 2960 -328V-194Q2960 -86 3050 -86Q3092 -86 3114 -106Q3136 -126 3147 -168L3241 -123Q3195 12 3050 12ZM3604 -522H3725L3526 109Q3509 162 3478 181Q3447 200 3391 200H3309V103H3412L3433 29L3259 -522H3382L3460 -240L3488 -103H3500L3528 -241ZM3788 -740H3909V-436H3923Q3934 -480 3967.5 -507Q4001 -534 4046 -534Q4138 -534 4182 -464.5Q4226 -395 4226 -261Q4226 -127 4182 -57.5Q4138 12 4046 12Q4001 12 3967.5 -15Q3934 -42 3923 -86H3909V0H3788ZM4000 -88Q4047 -88 4073 -117Q4099 -146 4099 -199V-323Q4099 -376 4073 -405Q4047 -434 4000 -434Q3959 -434 3934 -413.5Q3909 -393 3909 -356V-166Q3909 -129 3934 -108.5Q3959 -88 4000 -88ZM4517 12Q4466 12 4423.5 -4.5Q4381 -21 4351 -54.5Q4321 -88 4304.5 -139.5Q4288 -191 4288 -261Q4288 -402 4344.5 -468Q4401 -534 4506 -534Q4611 -534 4667.5 -468Q4724 -402 4724 -261V-232H4415V-198Q4415 -146 4444 -116Q4473 -86 4524 -86Q4567 -86 4596.5 -104.5Q4626 -123 4647 -158L4713 -89Q4684 -43 4635 -15.5Q4586 12 4517 12ZM4506 -441Q4415 -441 4415 -333V-307H4597V-333Q4597 -441 4506 -441ZM4813 0V-522H4934V-415H4948Q4957 -467 4985.5 -494.5Q5014 -522 5060 -522H5086V-398H5046Q4989 -398 4961.5 -380Q4934 -362 4934 -317V0Z" fill="#F8FAFC"/><path d="M5107 0 5265 -267 5109 -522H5241L5334 -354H5347L5440 -522H5564L5410 -264L5570 0H5437L5341 -176H5328L5230 0Z" fill="#FF3B30"/></g></svg>
